<?xml version="1.0" encoding="UTF-8" standalone="no"?>
<!-- Created with Inkscape (http://www.inkscape.org/) -->

<svg
   width="71.079018mm"
   height="9.8551254mm"
   viewBox="0 0 71.079018 9.8551254"
   version="1.1"
   id="svg1"
   inkscape:version="1.3 (0e150ed6c4, 2023-07-21)"
   sodipodi:docname="logo.svg"
   xmlns:inkscape="http://www.inkscape.org/namespaces/inkscape"
   xmlns:sodipodi="http://sodipodi.sourceforge.net/DTD/sodipodi-0.dtd"
   xmlns="http://www.w3.org/2000/svg"
   xmlns:svg="http://www.w3.org/2000/svg">
  <sodipodi:namedview
     id="namedview1"
     pagecolor="#ffffff"
     bordercolor="#000000"
     borderopacity="0"
     inkscape:showpageshadow="2"
     inkscape:pageopacity="0.0"
     inkscape:pagecheckerboard="true"
     inkscape:deskcolor="#d1d1d1"
     inkscape:document-units="mm"
     inkscape:zoom="2.8970539"
     inkscape:cx="147.39112"
     inkscape:cy="49.187901"
     inkscape:window-width="1920"
     inkscape:window-height="1009"
     inkscape:window-x="1912"
     inkscape:window-y="-8"
     inkscape:window-maximized="1"
     inkscape:current-layer="layer1" />
  <defs
     id="defs1" />
  <g
     inkscape:label="Calque 1"
     inkscape:groupmode="layer"
     id="layer1"
     transform="translate(-56.091667,-73.289585)">
    <g
       id="g69515"
       style="display:inline;stroke-width:1.03667"
       transform="matrix(0.02990959,0,0,0.02990959,46.073183,164.67633)"
       inkscape:label="LesKaribous">
      <path
         inkscape:connector-curvature="0"
         id="path5197"
         style="font-variant:normal;font-weight:normal;font-size:medium;font-family:Baveuse;-inkscape-font-specification:Baveuse-Regular;writing-mode:lr-tb;fill:#000000;fill-opacity:1;fill-rule:nonzero;stroke:#ffffff;stroke-width:53.0161;stroke-linecap:round;stroke-linejoin:round;stroke-miterlimit:4;stroke-dasharray:none;stroke-opacity:1;paint-order:stroke fill markers"
         d="m 2544.9269,-3020.5535 c -48.131,0 -76.2639,33.2172 -76.2639,92.5335 0,44.0636 24.4045,65.0785 72.5354,68.1291 23.7266,1.3558 47.792,2.7116 66.7733,4.0674 12.5411,1.0168 17.9644,7.4569 17.9644,16.6085 0,13.5581 -6.1012,18.6423 -14.236,18.6423 -16.9475,0 -94.2282,-10.5074 -130.4959,-15.9307 -4.4064,21.3539 -6.4401,44.4026 -8.4738,67.1122 47.792,2.7116 79.3144,4.4064 100.6683,4.4064 77.6197,0 106.7694,-18.6423 106.7694,-72.1965 0,-37.2845 -21.0149,-59.3163 -64.0616,-59.3163 -22.3707,0 -60.6722,0.339 -81.3481,0.339 -7.118,0 -11.1854,-5.0843 -11.1854,-13.5581 0,-13.219 5.4232,-20.337 18.3033,-20.337 15.9307,0 95.5841,12.5412 136.2581,19.3202 2.3727,-33.2172 5.4232,-67.1122 6.779,-109.82 z m -167.4413,187.1007 c -14.9137,2.0337 -33.556,3.3895 -52.5372,3.3895 -12.2023,0 -24.4045,-0.6779 -35.9288,-1.6947 -3.0506,-56.9437 -4.7453,-116.599 -4.7453,-185.067 -8.8127,-0.339 -17.6254,-0.339 -26.0992,-0.339 -18.6423,0 -36.2677,0.6779 -55.2489,1.6948 3.0505,56.9437 8.8127,116.5989 14.5748,175.2374 2.3727,25.0823 7.7959,45.4194 19.3202,58.2995 11.1854,13.219 32.8782,17.9644 68.468,17.9644 28.1329,0 55.5879,-1.0169 69.1458,-1.6948 37.6235,-1.3558 45.7583,-25.4213 53.2152,-78.2976 7.118,-51.8594 13.2191,-121.3443 18.3034,-176.5932 -17.2865,0 -35.2509,0.339 -51.8595,2.7116 -2.7116,59.9943 -8.8127,129.8181 -16.6085,184.3891 z m -268.1099,69.8238 c 38.3014,0 57.2826,-24.7434 62.3669,-74.5691 5.7622,-53.8931 10.1685,-94.2283 10.1685,-107.4473 0,-42.0299 -21.6928,-66.0954 -64.0616,-70.8407 -36.6066,-3.7284 -74.569,-6.44 -110.4978,-6.44 -46.4362,0 -65.0785,41.6909 -66.4343,82.026 -1.0168,22.0318 -1.6947,44.7415 -1.6947,63.3837 0,26.4382 0.6779,47.1142 9.8295,67.1122 11.8633,25.7603 32.8782,35.9288 60.6722,39.9962 23.0486,3.3895 66.0953,7.118 99.6513,6.779 z m 10.8464,-167.1026 c 4.7453,39.6572 6.1011,77.2807 6.779,114.9042 -42.7076,-0.3389 -95.5839,-2.0337 -128.1231,-4.4063 0.3389,-34.573 1.6947,-68.807 5.7621,-103.041 39.9962,-5.4232 75.9249,-6.779 115.582,-7.4569 z m -438.9409,151.5109 c 52.1984,8.8127 106.0915,14.2359 159.6457,14.2359 45.7583,0 68.807,-37.6235 68.807,-76.2639 0,-24.0655 -9.1517,-36.9456 -25.0824,-45.0804 18.6423,-9.8295 30.5056,-33.5561 30.5056,-68.468 0,-34.9119 -15.9307,-53.8931 -53.2153,-56.9437 -37.6235,-2.7116 -93.8893,-5.7621 -168.1194,-11.5243 -8.4738,81.3481 -11.5243,163.0352 -12.5412,244.0444 z m 74.2302,-152.5278 c 33.2171,0.339 71.5185,3.7285 98.6346,5.7622 12.5411,1.0169 15.9306,8.8127 15.9306,17.2865 0,11.8633 -7.7958,16.9475 -21.6928,16.9475 -32.2003,0 -64.7395,-5.0842 -95.923,-8.1348 0.6779,-12.5412 2.0337,-25.4213 3.0506,-31.8614 z m 94.5672,73.8913 c 7.1179,0.6779 9.4906,6.779 9.4906,13.8969 0,9.1517 -5.0843,14.9139 -12.5412,14.9139 -7.7958,0 -88.1271,-4.4064 -116.9379,-6.4401 -1.0169,-7.4569 -1.3558,-18.9812 -1.3558,-30.8445 42.0298,2.3727 79.9923,5.7622 121.3443,8.4738 z m -249.8066,90.8387 c 10.5075,2.3727 24.0655,3.7285 36.6067,3.7285 11.1854,-76.2639 23.0486,-171.1701 32.2003,-254.2129 -20.676,-6.1011 -43.3857,-6.4401 -66.7733,-6.4401 0.339,41.352 1.0169,81.6871 1.0169,122.7001 0,43.7246 -0.6779,88.1271 -3.0506,134.2244 z m -119.9884,12.8801 c 25.0823,0 51.8593,-5.0842 74.9079,-11.5243 -22.0318,-25.4213 -42.7076,-50.5036 -61.6889,-75.247 76.6027,0 92.5334,-38.6404 92.5334,-98.9736 0,-51.5204 -25.4213,-76.9417 -76.6027,-79.9923 -56.2658,-3.0505 -122.3611,-5.4232 -168.7974,-7.7958 -0.6779,30.1666 -1.0168,59.9942 -1.0168,89.1439 0,56.6048 1.3558,111.5148 3.7285,164.73 17.9643,0 39.3182,-1.3558 53.8931,-5.7622 1.0168,-26.0992 1.6947,-47.1141 4.7453,-70.8406 10.1685,-0.6779 21.6928,-1.0169 29.4887,-1.3558 12.5412,28.8108 32.5392,70.8406 48.8089,97.6177 z m -100.6683,-167.4415 c 48.4699,0 111.5147,1.3558 134.9023,2.7116 12.541,0.6779 17.9642,4.4063 17.9642,15.5917 0,10.5075 -4.7453,19.6591 -21.3537,19.6591 -4.7454,0 -9.8296,0 -21.3539,-1.0168 -36.6067,-3.3895 -72.5354,-7.4569 -108.4642,-11.8633 -1.0168,-6.4401 -1.6947,-16.2696 -1.6947,-25.0823 z m -64.7396,164.391 c -4.4063,-9.4907 -6.44,-23.7266 -6.44,-42.3689 0,-38.9793 7.1179,-84.7376 7.1179,-125.7506 0,-52.8763 -23.0486,-78.6365 -69.4847,-81.3481 -24.0655,-1.3558 -64.4006,-3.3895 -102.702,-3.3895 -7.7959,0 -15.2528,0.3389 -22.7097,0.3389 -4.7453,27.1161 -7.4569,55.249 -7.4569,83.0429 0,3.3895 0.3389,6.779 0.3389,10.5075 17.9644,-1.3558 38.3014,-1.6948 58.2995,-1.6948 26.4382,0 52.1984,0.6779 70.5017,1.6948 26.438,1.3558 39.3182,10.8464 39.3182,31.5224 0,4.7453 -1.3558,10.1685 -2.3727,14.9138 -4.7453,-13.2191 -15.9307,-20.676 -30.1666,-23.3876 -31.1833,-5.7622 -67.1121,-9.8296 -92.1944,-9.8296 -47.4531,0 -70.8407,25.7603 -70.8407,69.1459 0,20.676 7.4569,36.6067 21.6929,48.47 29.8276,24.7434 97.9567,26.0992 103.3799,26.0992 33.5561,0 45.4192,-5.4232 54.5709,-21.6929 7.4569,15.9307 22.7097,23.7266 49.1478,23.7266 z m -62.3669,-62.7059 c -27.7938,0 -87.788,-6.44 -108.1251,-10.1685 -8.8127,-1.3558 -12.8801,-4.7453 -12.8801,-13.2191 0,-15.5917 4.4064,-22.7097 11.5243,-22.7097 19.6591,0 84.7376,7.7959 112.1925,11.5244 8.1348,1.0168 10.5075,7.4569 10.5075,19.3201 0,11.8633 -5.0843,15.2528 -13.2191,15.2528 z m -590.61389,-78.7544 c -25.11182,0 -39.78985,17.3307 -39.78985,48.2783 0,22.9897 12.73275,33.954 37.84457,35.5456 12.37906,0.7074 24.93496,1.4148 34.83821,2.1222 6.54321,0.5305 9.37271,3.8905 9.37271,8.6653 0,7.0738 -3.18319,9.7264 -7.42744,9.7264 -8.84217,0 -49.16255,-5.4821 -68.08483,-8.3116 -2.29897,11.1411 -3.36003,23.1665 -4.42109,35.015 24.93497,1.4148 41.38144,2.299 52.52259,2.299 40.49721,0 55.70577,-9.7264 55.70577,-37.6677 0,-19.4528 -10.96431,-30.9477 -33.42347,-30.9477 -11.67167,0 -31.65502,0.1769 -42.44249,0.1769 -3.71371,0 -5.83584,-2.6527 -5.83584,-7.0738 0,-6.8969 2.8295,-10.6106 9.54956,-10.6106 8.31166,0 49.86993,6.5432 71.09118,10.0801 1.2379,-17.3307 2.8295,-35.0151 3.53687,-57.2974 z m -74.2744,134.5781 c 2.8295,-10.2569 4.42109,-22.8128 5.48216,-33.6003 -17.86122,0 -45.97938,-1.2379 -60.12687,-2.4758 -6.72006,-0.5306 -9.01903,-5.659 -9.01903,-12.9096 0,-1.2379 0,-2.6527 0.17685,-3.8906 10.96431,1.5916 32.71608,5.3053 46.68673,5.3053 29.35607,0 38.02141,-22.2823 38.02141,-46.333 0,-25.6424 -11.49484,-37.4909 -36.07612,-39.4362 -12.20222,-1.0611 -22.81285,-1.7684 -32.18557,-1.7684 -42.97301,0 -52.52258,18.5686 -52.52258,66.1395 0,27.9413 5.659,53.23 30.41713,59.0658 21.75177,5.1285 47.21727,7.6043 69.14589,9.9033 z m -74.09752,-72.1523 c 0,-1.061 -0.17684,-1.9452 -0.17684,-2.8295 0,-9.1958 3.71372,-14.678 12.02537,-14.678 9.72641,0 43.32671,4.2443 50.5773,5.659 3.71372,0.7074 5.48216,3.0064 5.48216,9.019 0,5.4822 -3.18319,7.4275 -8.13481,7.4275 -10.96432,0 -41.91196,-3.1832 -59.77318,-4.598 z m -132.98651,77.2808 c 32.53925,-0.8843 64.54797,-2.299 96.73352,-5.1285 2.29897,-10.6106 3.00635,-20.8676 3.00635,-32.1856 -22.98968,3.1832 -45.80252,6.0127 -68.96905,6.1896 5.12847,-34.4846 9.37271,-68.9691 12.37906,-103.4536 -16.09278,-2.299 -32.71609,-3.1832 -49.51625,-4.0674 3.53687,47.5709 4.95162,93.0198 6.36637,138.6455 z" />
      <path
         inkscape:connector-curvature="0"
         id="path5208"
         style="font-variant:normal;font-weight:normal;font-size:medium;font-family:Baveuse;-inkscape-font-specification:Baveuse-Regular;writing-mode:lr-tb;fill:#ff950e;fill-opacity:1;fill-rule:nonzero;stroke:#ffffff;stroke-width:53.0161;stroke-linecap:round;stroke-linejoin:round;stroke-miterlimit:4;stroke-dasharray:none;stroke-opacity:1;paint-order:stroke fill markers"
         d="m 758.42215,-2978.5829 c 7.30954,0 14.2654,-0.2358 20.86755,-0.7074 0.58948,-4.7158 1.06107,-9.5496 1.06107,-14.8549 -7.54533,0.2358 -15.09066,0.4716 -22.4002,1.179 z m -0.35368,39.8488 c 7.30954,0.8252 14.26539,1.4147 20.86755,1.6505 0.70737,-4.5979 1.41475,-9.5496 1.76843,-14.737 -7.66321,-0.7073 -15.20855,-1.2968 -22.40019,-1.2968 z m -45.86151,1.4147 c 1.53265,-19.4528 2.12213,-42.0888 2.12213,-64.9606 0,-16.977 -7.89902,-26.1729 -22.28231,-26.4087 -8.37061,-0.1178 -18.98123,-0.2357 -28.05921,-0.2357 -5.5411,0 -10.61063,0 -14.0296,0.1179 -9.07798,0.3536 -14.3833,4.48 -16.03384,11.4358 -2.94739,-6.6021 -8.96008,-10.139 -18.03806,-10.4927 1.41475,28.4129 2.35792,59.5374 2.35792,89.2472 3.53687,-0.1179 8.96008,-0.4716 12.26116,-1.179 1.53265,-18.7454 2.35792,-37.9625 2.35792,-56.4721 6.95585,-1.0611 12.49696,-1.2969 19.21702,-1.2969 0.23579,8.1349 0.35369,14.0297 0.35369,21.575 0,11.4359 -0.23579,22.5181 -0.82527,33.4824 4.24425,0.4716 9.78535,0.5895 14.50118,0.7074 2.00423,-19.217 3.30109,-41.7351 3.30109,-60.3627 7.78112,0 13.44012,0.2358 19.92439,1.2969 0.47159,6.9558 0.58948,16.6233 0.58948,23.4612 0,12.7328 -0.58948,25.5834 -1.29685,38.1983 8.60639,0.9432 14.97277,1.5326 23.57916,1.8863 z m -103.74833,1.2969 c -1.53264,-3.3011 -2.24002,-8.2527 -2.24002,-14.737 0,-13.558 2.47582,-29.474 2.47582,-43.7394 0,-18.3917 -8.01692,-27.3518 -24.16865,-28.295 -8.3706,-0.4715 -22.40021,-1.1789 -35.72244,-1.1789 -2.7116,0 -5.30531,0.1179 -7.89902,0.1179 -1.65054,9.4316 -2.59371,19.217 -2.59371,28.8845 0,1.1789 0.1179,2.3579 0.1179,3.6547 6.24848,-0.4716 13.32223,-0.5895 20.27808,-0.5895 9.19588,0 18.15596,0.2358 24.52234,0.5895 9.19587,0.4716 13.67591,3.7727 13.67591,10.9643 0,1.6506 -0.47158,3.5369 -0.82527,5.1875 -1.65054,-4.598 -5.5411,-7.1917 -10.49273,-8.1349 -10.84641,-2.0042 -23.34337,-3.4189 -32.06766,-3.4189 -16.50542,0 -24.64023,8.96 -24.64023,24.0507 0,7.1917 2.59371,12.7328 7.54533,16.8591 10.37483,8.6064 34.0719,9.078 35.95823,9.078 11.67169,0 15.79804,-1.8863 18.98123,-7.5453 2.59371,5.5411 7.89902,8.2527 17.09489,8.2527 z m -21.69283,-21.8108 c -9.66746,0 -30.53502,-2.24 -37.60877,-3.5368 -3.06529,-0.4716 -4.48004,-1.6506 -4.48004,-4.598 0,-5.4232 1.53265,-7.899 4.00846,-7.899 6.83796,0 29.47396,2.7116 39.02352,4.0085 2.8295,0.3537 3.65477,2.5937 3.65477,6.72 0,4.1264 -1.76844,5.3053 -4.59794,5.3053 z m -78.75444,19.9244 c 1.88634,-6.8379 2.9474,-15.2085 3.65476,-22.4002 -11.90747,0 -30.6529,-0.8252 -40.08457,-1.6505 -4.48004,-0.3537 -6.01269,-3.7727 -6.01269,-8.6064 0,-0.8253 0,-1.7684 0.1179,-2.5937 7.30954,1.061 21.81073,3.5369 31.1245,3.5369 19.57069,0 25.34759,-14.8549 25.34759,-30.8887 0,-17.0949 -7.66323,-24.994 -24.05074,-26.2908 -8.13481,-0.7074 -15.20856,-1.179 -21.45704,-1.179 -28.64868,0 -35.01506,12.3791 -35.01506,44.0931 0,18.6275 3.77267,35.4866 20.27808,39.3772 14.50119,3.419 31.47819,5.0695 46.09727,6.6021 z m -49.39835,-48.1015 c 0,-0.7073 -0.1179,-1.2968 -0.1179,-1.8863 0,-6.1306 2.47582,-9.7853 8.01692,-9.7853 6.48427,0 28.88448,2.8295 33.71821,3.7726 2.47581,0.4716 3.65477,2.0042 3.65477,6.0127 0,3.6548 -2.12213,4.9516 -5.42321,4.9516 -7.30954,0 -27.94131,-2.1221 -39.84879,-3.0653 z m -69.79431,49.5163 c 5.54111,-0.4716 10.84642,-1.179 16.15173,-2.24 0,-19.0992 0.35369,-37.2551 1.76844,-53.9963 4.12635,-0.8253 8.25271,-1.179 12.49696,-1.179 3.89056,0 7.89902,0.3537 11.78958,0.5895 2.00423,-10.0211 2.8295,-21.6928 3.41898,-34.3077 -24.28654,0 -48.80888,0.4716 -72.97752,2.7116 0.47158,11.6717 1.65054,22.4002 3.53687,32.1856 6.60217,-1.0611 14.50119,-1.6506 21.81073,-1.8864 0.23579,19.335 0.82527,38.6699 2.00423,58.1227 z m 587.8286,184.0505 c 28.8108,-3.0506 55.9268,-7.4569 81.6871,-13.2191 -32.8782,-41.6909 -65.07851,-84.7376 -94.56722,-130.157 37.28452,-38.6404 72.19652,-79.6534 106.43052,-121.0053 -26.4382,-4.0674 -53.2153,-6.1011 -80.33132,-7.118 -25.08235,42.0299 -52.87629,81.3481 -82.36497,117.6158 -1.01686,-17.6254 -1.35581,-35.9287 -1.35581,-55.5878 0,-17.6255 0.33895,-35.9288 1.35581,-55.5879 -5.76216,-0.339 -11.52432,-0.339 -16.94753,-0.339 -26.09919,0 -51.85943,2.3727 -78.29757,5.7622 7.45691,83.3818 17.28648,166.0857 29.4887,249.4676 12.88012,1.6947 25.08234,2.3726 38.64036,2.3726 -2.03371,-15.2528 -4.06741,-32.5392 -4.74531,-53.5542 16.26962,-15.2527 32.53925,-28.8108 49.48676,-39.6572 15.25277,35.9288 32.53925,69.4849 51.52048,101.0073 z" />
    </g>
  </g>
</svg>
